<?xml version="1.0" encoding="utf-8"?>
<!-- Svg Vector Icons : http://www.onlinewebfonts.com/icon -->
<!DOCTYPE svg PUBLIC "-//W3C//DTD SVG 1.1//EN" "http://www.w3.org/Graphics/SVG/1.1/DTD/svg11.dtd">
<svg version="1.1" xmlns="http://www.w3.org/2000/svg" xmlns:xlink="http://www.w3.org/1999/xlink" x="0px" y="0px" viewBox="0 0 1000 1000" enable-background="new 0 0 1000 1000" xml:space="preserve">
<metadata> Svg Vector Icons : http://www.onlinewebfonts.com/icon </metadata>
<g><path d="M960.3,797.3L690,517.7c56.2-134.3,31.6-296.1-74.4-405.9c-138.5-143.5-363.1-143.5-501.7,0c-138.5,143.5-138.5,376.1,0,519.6c102.2,116.5,288,132.5,421.7,60.6l263.2,272.2c59.4,61.4,104.6,21,141.8-17.4C977.8,908.4,1019.7,858.7,960.3,797.3z M199,539.3c-90.8-94.1-90.8-246.7,0-340.8c90.9-94.1,238.2-94.1,329,0c90.9,94.1,90.9,246.7,0,340.8C437.2,633.4,289.9,633.4,199,539.3z"/></g>
</svg>